# xmcd
#
# Track frame offsets:
#	150
#	13537
#	27325
#	42150
#	60012
#	73900
#	86575
#	96487
#	121602
#	132212
#
# Disc length: 1979 seconds
# Revision: 2
# Processed by: cddbd v1.5.2PL0 Copyright (c) Steve Scherf et al.
# Submitted via: dBpowerAMP V12.0
#
DISCID=7907b90a
DTITLE=Various Artist - Top Ten Country D2
DYEAR=2004
DGENRE=Country
TTITLE0=Waylon Jennings - Amanda
TTITLE1=Charley Pride - All I Have To Offer You (Is Me)
TTITLE2=Dolly Parton - It's All Wrong But It's Alright
TTITLE3=Jessi Colter - Suspicious Minds
TTITLE4=Jim Ed Brown - I Don't Want To Have To Marry You
TTITLE5=Gary Stewart - She's Actin' Single (I'm Drinkin' Doubles)
TTITLE6=Charlie Rich - It's All Over Now
TTITLE7=Ray Stevens - Shriner's Convention
TTITLE8=Jerry Reed - When You're Hot, You're Hot
TTITLE9=Dickey Lee - Rocky
EXTD=
EXTT0=
EXTT1=
EXTT2=
EXTT3=
EXTT4=
EXTT5=
EXTT6=
EXTT7=
EXTT8=
EXTT9=
PLAYORDER=
